<svg xmlns="http://www.w3.org/2000/svg" viewBox="0 0 640 320" role="img" aria-label="Stylized world map for countries and nationalities">
  <defs>
    <linearGradient id="ocean" x1="0" y1="0" x2="0" y2="1">
      <stop offset="0%" stop-color="#dbeafe" />
      <stop offset="100%" stop-color="#eff6ff" />
    </linearGradient>
    <filter id="shadow" x="-20%" y="-20%" width="140%" height="140%">
      <feDropShadow dx="0" dy="8" stdDeviation="10" flood-color="#1e3a8a" flood-opacity="0.15" />
    </filter>
  </defs>
  <rect width="640" height="320" rx="24" fill="url(#ocean)" />
  <g filter="url(#shadow)">
    <path d="M70 88c38-22 93-18 126 7 18 13 25 28 24 46-1 24-18 41-43 54-20 10-54 19-86 13-26-6-46-24-55-47-10-28 7-58 34-73Z" fill="#86efac" opacity="0.95" />
    <path d="M146 208c19-7 36-3 47 7 13 11 14 27 8 42-7 18-25 33-50 37-26 4-53-5-65-22-10-14-7-32 3-44 14-16 35-23 57-20Z" fill="#22c55e" opacity="0.92" />
    <path d="M214 94c24-13 60-14 89-2 22 9 38 23 47 42 10 21 10 46 0 68-9 20-27 36-51 43-34 10-78 5-104-15-22-17-31-42-27-66 4-25 19-48 46-70Z" fill="#bbf7d0" opacity="0.95" />
    <path d="M332 52c19-12 41-18 63-17 18 1 33 7 45 17 13 12 20 28 18 46-2 18-10 34-24 46-16 13-36 19-58 18-25-1-46-10-60-27-14-17-15-46 16-83Z" fill="#93c5fd" opacity="0.92" />
    <path d="M420 160c34-19 77-22 109-7 29 13 48 36 56 65 7 26 5 54-6 77-11 24-32 41-61 50-33 11-75 8-107-9-29-16-49-41-53-69-5-32 9-62 62-107Z" fill="#fca5a5" opacity="0.9" />
    <path d="M500 46c17-11 40-11 58-1 12 7 20 18 23 31 3 12 1 24-7 35-10 13-27 21-46 21-20 0-36-7-46-20-11-14-11-44 18-66Z" fill="#fde68a" opacity="0.95" />
  </g>
  <g fill="#0f172a" font-family="Inter, Arial, sans-serif" font-size="20" font-weight="700" opacity="0.92">
    <text x="95" y="72">Canada</text>
    <text x="156" y="195">Brazil</text>
    <text x="242" y="82">Spain</text>
    <text x="382" y="88">Japan</text>
    <text x="487" y="186">Australia</text>
  </g>
  <g fill="#1d4ed8" font-family="Inter, Arial, sans-serif" font-size="13" font-weight="600" opacity="0.75">
    <text x="28" y="304">Hover the hotspots to practice countries and nationalities.</text>
  </g>
</svg>
